<?xml version="1.0" encoding="UTF-8" standalone="no"?>
<svg
   xmlns:dc="http://purl.org/dc/elements/1.1/"
   xmlns:cc="http://creativecommons.org/ns#"
   xmlns:rdf="http://www.w3.org/1999/02/22-rdf-syntax-ns#"
   xmlns:svg="http://www.w3.org/2000/svg"
   xmlns="http://www.w3.org/2000/svg"
   viewBox="0 0 236.08 59.613335"
   height="59.613335"
   width="236.08"
   xml:space="preserve"
   id="svg2"
   version="1.1"><metadata
     id="metadata8"><rdf:RDF><cc:Work
         rdf:about=""><dc:format>image/svg+xml</dc:format><dc:type
           rdf:resource="http://purl.org/dc/dcmitype/StillImage" /></cc:Work></rdf:RDF></metadata><defs
     id="defs6" /><g
     transform="matrix(1.3333333,0,0,-1.3333333,0,59.613333)"
     id="g10"><g
       transform="scale(0.1)"
       id="g12"><path
         id="path14"
         style="fill:#000000;fill-opacity:1;fill-rule:nonzero;stroke:none"
         d="M 415.422,447.148 402.074,385.91 h 39.637 l 14.769,61.238 h 58.418 l -37.789,-169.644 -58.902,0.035 13.625,65.152 h -38.551 l -15.742,-65.152 -60.699,0.039 28.031,125.559 -52.5,0.031 -27.996,-125.664 -62.418,0.035 27.941,125.629 H 93.0859 l -4.5586,-20.301 h 84.3277 l -8.871,-39.961 H 78.9258 l -4.8789,-21.281 h 88.2421 l -9.844,-44.086 H 1.65625 L 39.4414,447.148 H 415.422" /><path
         id="path16"
         style="fill:#231f20;fill-opacity:1;fill-rule:nonzero;stroke:none"
         d="m 2.71875,135.762 v 57.379 H 32.9805 v -7.739 H 11.9844 v -16.32 H 31.957 V 161.52 H 11.9844 v -17.852 h 20.9961 v -7.906 H 2.71875" /><path
         id="path18"
         style="fill:#231f20;fill-opacity:1;fill-rule:nonzero;stroke:none"
         d="m 52.3594,184.297 c -3.2344,0 -5.8672,2.551 -5.8672,5.695 0,3.149 2.6328,5.696 5.8672,5.696 3.1445,0 5.7812,-2.465 5.7812,-5.696 0,-3.144 -2.6367,-5.695 -5.7812,-5.695 z m -4.5899,-48.535 v 42.246 h 9.0899 v -42.246 h -9.0899" /><path
         id="path20"
         style="fill:#231f20;fill-opacity:1;fill-rule:nonzero;stroke:none"
         d="m 97.9141,157.609 c 0,-7.226 -3.7383,-15.214 -10.4532,-15.214 -5.7812,0 -8.414,4.757 -8.414,13.261 0,11.383 4.9297,15.805 12.1523,15.805 2.2149,0 4.4219,-0.254 6.7149,-0.762 z m 9.0159,-21.847 v 62.051 h -9.0159 v -19.461 c -2.293,0.164 -4.3282,0.336 -6.3711,0.336 -13.6875,0 -22.1016,-9.352 -22.1016,-23.887 0,-12.238 5.1836,-19.891 15.5547,-19.891 6.5469,0 11.4727,3.57 13.7695,8.758 h 0.1719 c -0.4258,-2.379 -0.5977,-5.695 -0.5977,-7.906 h 8.5902" /><path
         id="path22"
         style="fill:#231f20;fill-opacity:1;fill-rule:nonzero;stroke:none"
         d="m 148.492,163.219 c 0,-5.528 -3.742,-8.672 -9.433,-8.672 -6.125,0 -9.524,3.23 -9.524,8.754 0,5.187 3.57,8.844 9.606,8.844 5.863,0 9.351,-3.317 9.351,-8.926 z m 11.727,-32.985 c 0,7.907 -5.184,12.243 -14.364,12.243 h -7.222 c -5.102,0 -6.973,0.847 -6.973,2.976 0,1.188 0.766,2.461 2.465,3.145 1.277,-0.258 3.23,-0.422 4.844,-0.422 11.898,0 18.277,6.457 18.277,15.637 0,3.058 -1.101,5.613 -2.891,7.054 h 6.461 v 7.141 h -14.277 c -2.297,0.508 -4.426,0.851 -6.973,0.851 -12.07,0 -18.875,-7.48 -18.875,-16.41 0,-5.265 2.129,-9.601 6.297,-11.898 -2.98,-1.274 -4.847,-4.164 -4.847,-7.227 0,-2.801 1.613,-5.011 4.164,-6.289 -3.653,-1.871 -6.797,-5.863 -6.797,-10.625 0,-8.156 6.883,-12.41 17.933,-12.41 13.598,0 22.778,7.227 22.778,16.234 z m -9.008,-1.187 c 0,-4.59 -4.418,-7.992 -12.324,-7.992 -6.121,0 -10.371,2.554 -10.371,7.054 0,2.891 1.789,5.442 4.672,7.055 0.683,-0.082 1.535,-0.082 2.296,-0.082 h 7.907 c 5.355,0 7.82,-2.383 7.82,-6.035" /><path
         id="path24"
         style="fill:#231f20;fill-opacity:1;fill-rule:nonzero;stroke:none"
         d="m 196.586,162.703 h -17.934 c 0.766,5.699 4.336,9.442 9.434,9.442 5.355,0 8.672,-3.657 8.5,-9.442 z m 9.098,-2.121 c 0,10.027 -5.188,18.277 -17.254,18.277 -12.325,0 -19.297,-9.523 -19.297,-22.273 0,-14.871 7.226,-21.676 20.398,-21.676 5.188,0 10.371,0.934 14.625,2.723 l -0.851,7.226 c -3.485,-1.699 -7.992,-2.718 -12.328,-2.718 -8.414,0 -12.75,4.418 -12.497,14.191 h 26.95 c 0.172,1.617 0.254,3.059 0.254,4.25" /><path
         id="path26"
         style="fill:#231f20;fill-opacity:1;fill-rule:nonzero;stroke:none"
         d="m 245.121,135.762 v 27.203 c 0,5.269 -1.445,8.328 -6.289,8.328 -6.375,0 -11.051,-6.719 -11.051,-15.133 v -20.398 h -9.093 v 42.246 h 8.671 c 0,-2.211 -0.171,-5.863 -0.597,-8.246 l 0.086,-0.082 c 2.465,5.437 7.566,9.179 14.707,9.179 9.601,0 12.578,-6.035 12.578,-13.515 v -29.582 h -9.012" /><path
         id="path28"
         style="fill:#231f20;fill-opacity:1;fill-rule:nonzero;stroke:none"
         d="m 297.566,157.094 c 0,-9.77 -4.929,-14.364 -10.793,-14.364 -7.054,0 -10.796,5.02 -10.796,14.536 0,9.691 5.355,13.941 10.878,13.941 7.227,0 10.711,-5.098 10.711,-14.113 z m 2.805,34.09 c 0,2.804 -2.297,5.101 -5.098,5.101 -2.89,0 -5.183,-2.297 -5.183,-5.101 0,-2.895 2.293,-5.188 5.183,-5.188 2.801,0 5.098,2.293 5.098,5.188 z m -16.66,0 c 0,2.804 -2.297,5.101 -5.184,5.101 -2.89,0 -5.097,-2.297 -5.097,-5.101 0,-2.895 2.207,-5.188 5.097,-5.188 2.887,0 5.184,2.293 5.184,5.188 z m 23.207,-33.493 c 0,14.879 -7.992,21.168 -19.297,21.168 -12.836,0 -21.078,-9.777 -21.078,-22.527 0,-14.879 7.648,-21.422 19.379,-21.422 12.496,0 20.996,9.778 20.996,22.781" /><path
         id="path30"
         style="fill:#231f20;fill-opacity:1;fill-rule:nonzero;stroke:none"
         d="m 326.465,134.91 c -3.145,0 -6.289,0.344 -8.926,0.852 l 0.258,7.734 c 2.633,-0.766 5.949,-1.355 9.18,-1.355 4.925,0 8.332,2.121 8.332,5.609 0,8.496 -18.532,3.398 -18.532,18.016 0,7.308 5.95,13.093 17.422,13.093 2.465,0 5.356,-0.343 7.906,-0.769 l -0.253,-7.391 c -2.551,0.762 -5.524,1.192 -8.243,1.192 -5.019,0 -7.48,-2.043 -7.48,-5.274 0,-8.16 18.695,-3.996 18.695,-18.019 0,-7.903 -7.051,-13.688 -18.359,-13.688" /><path
         id="path32"
         style="fill:#231f20;fill-opacity:1;fill-rule:nonzero;stroke:none"
         d="m 364.973,134.91 c -3.149,0 -6.289,0.344 -8.926,0.852 l 0.254,7.734 c 2.637,-0.766 5.949,-1.355 9.179,-1.355 4.93,0 8.329,2.121 8.329,5.609 0,8.496 -18.532,3.398 -18.532,18.016 0,7.308 5.953,13.093 17.426,13.093 2.469,0 5.36,-0.343 7.906,-0.769 l -0.254,-7.391 c -2.546,0.762 -5.527,1.192 -8.246,1.192 -5.015,0 -7.48,-2.043 -7.48,-5.274 0,-8.16 18.699,-3.996 18.699,-18.019 0,-7.903 -7.055,-13.688 -18.355,-13.688" /><path
         id="path34"
         style="fill:#231f20;fill-opacity:1;fill-rule:nonzero;stroke:none"
         d="m 401.094,184.297 c -3.227,0 -5.864,2.551 -5.864,5.695 0,3.149 2.637,5.696 5.864,5.696 3.144,0 5.781,-2.465 5.781,-5.696 0,-3.144 -2.637,-5.695 -5.781,-5.695 z m -4.59,-48.535 v 42.246 h 9.098 v -42.246 h -9.098" /><path
         id="path36"
         style="fill:#231f20;fill-opacity:1;fill-rule:nonzero;stroke:none"
         d="m 428.551,134.91 c -3.145,0 -6.293,0.344 -8.926,0.852 l 0.254,7.734 c 2.637,-0.766 5.949,-1.355 9.18,-1.355 4.929,0 8.328,2.121 8.328,5.609 0,8.496 -18.528,3.398 -18.528,18.016 0,7.308 5.95,13.093 17.426,13.093 2.465,0 5.356,-0.343 7.906,-0.769 l -0.253,-7.391 c -2.555,0.762 -5.532,1.192 -8.25,1.192 -5.012,0 -7.481,-2.043 -7.481,-5.274 0,-8.16 18.703,-3.996 18.703,-18.019 0,-7.903 -7.055,-13.688 -18.359,-13.688" /><path
         id="path38"
         style="fill:#231f20;fill-opacity:1;fill-rule:nonzero;stroke:none"
         d="m 475.469,135.082 c -10.883,0 -18.785,5.352 -18.785,20.402 0,13.426 6.886,23.204 21.418,23.204 3.144,0 6.375,-0.426 9.179,-1.278 l -0.933,-7.902 c -2.547,0.937 -5.442,1.613 -8.5,1.613 -7.735,0 -11.649,-5.695 -11.649,-14.617 0,-7.738 2.809,-13.602 11.223,-13.602 3.23,0 6.715,0.766 9.18,2.039 l 0.765,-7.734 c -2.804,-1.102 -7.226,-2.125 -11.898,-2.125" /><path
         id="path40"
         style="fill:#231f20;fill-opacity:1;fill-rule:nonzero;stroke:none"
         d="m 525.875,135.762 v 27.203 c 0,5.269 -1.445,8.328 -6.289,8.328 -6.379,0 -11.055,-6.719 -11.055,-15.215 v -20.316 h -9.093 v 62.051 h 9.093 v -19.125 c 0,-2.637 -0.168,-6.208 -0.761,-8.5 l 0.171,-0.086 c 2.461,5.269 7.473,8.757 14.364,8.757 9.605,0 12.578,-6.035 12.578,-13.515 v -29.582 h -9.008" /><path
         id="path42"
         style="fill:#231f20;fill-opacity:1;fill-rule:nonzero;stroke:none"
         d="m 574.918,162.703 h -17.934 c 0.766,5.699 4.332,9.442 9.434,9.442 5.355,0 8.672,-3.657 8.5,-9.442 z m 9.098,-2.121 c 0,10.027 -5.188,18.277 -17.258,18.277 -12.324,0 -19.297,-9.523 -19.297,-22.273 0,-14.871 7.227,-21.676 20.398,-21.676 5.188,0 10.375,0.934 14.621,2.723 l -0.847,7.226 c -3.485,-1.699 -7.988,-2.718 -12.324,-2.718 -8.414,0 -12.75,4.418 -12.496,14.191 h 26.949 c 0.164,1.617 0.254,3.059 0.254,4.25" /><path
         id="path44"
         style="fill:#231f20;fill-opacity:1;fill-rule:nonzero;stroke:none"
         d="m 635,185.316 v -49.554 h -9.266 v 49.554 h -15.722 v 7.825 h 40.801 v -7.825 H 635" /><path
         id="path46"
         style="fill:#231f20;fill-opacity:1;fill-rule:nonzero;stroke:none"
         d="m 678.336,162.703 h -17.941 c 0.765,5.699 4.335,9.442 9.441,9.442 5.352,0 8.664,-3.657 8.5,-9.442 z m 9.09,-2.121 c 0,10.027 -5.184,18.277 -17.254,18.277 -12.324,0 -19.293,-9.523 -19.293,-22.273 0,-14.871 7.223,-21.676 20.398,-21.676 5.188,0 10.368,0.934 14.621,2.723 l -0.847,7.226 c -3.488,-1.699 -7.996,-2.718 -12.324,-2.718 -8.418,0 -12.754,4.418 -12.497,14.191 h 26.942 c 0.172,1.617 0.254,3.059 0.254,4.25" /><path
         id="path48"
         style="fill:#231f20;fill-opacity:1;fill-rule:nonzero;stroke:none"
         d="m 715.816,135.082 c -10.878,0 -18.785,5.352 -18.785,20.402 0,13.426 6.887,23.204 21.422,23.204 3.145,0 6.375,-0.426 9.18,-1.278 l -0.938,-7.902 c -2.55,0.937 -5.441,1.613 -8.496,1.613 -7.734,0 -11.644,-5.695 -11.644,-14.617 0,-7.738 2.8,-13.602 11.218,-13.602 3.227,0 6.715,0.766 9.18,2.039 l 0.762,-7.734 c -2.805,-1.102 -7.223,-2.125 -11.899,-2.125" /><path
         id="path50"
         style="fill:#231f20;fill-opacity:1;fill-rule:nonzero;stroke:none"
         d="m 766.223,135.762 v 27.203 c 0,5.269 -1.446,8.328 -6.289,8.328 -6.379,0 -11.051,-6.719 -11.051,-15.215 v -20.316 h -9.098 v 62.051 h 9.098 v -19.125 c 0,-2.637 -0.172,-6.208 -0.77,-8.5 l 0.172,-0.086 c 2.469,5.269 7.481,8.757 14.367,8.757 9.606,0 12.578,-6.035 12.578,-13.515 v -29.582 h -9.007" /><path
         id="path52"
         style="fill:#231f20;fill-opacity:1;fill-rule:nonzero;stroke:none"
         d="m 817.648,135.762 v 27.203 c 0,5.269 -1.449,8.328 -6.289,8.328 -6.379,0 -11.05,-6.719 -11.05,-15.133 v -20.398 h -9.098 v 42.246 h 8.672 c 0,-2.211 -0.172,-5.863 -0.598,-8.246 l 0.086,-0.082 c 2.465,5.437 7.567,9.179 14.707,9.179 9.606,0 12.578,-6.035 12.578,-13.515 v -29.582 h -9.008" /><path
         id="path54"
         style="fill:#231f20;fill-opacity:1;fill-rule:nonzero;stroke:none"
         d="m 847.227,184.297 c -3.235,0 -5.864,2.551 -5.864,5.695 0,3.149 2.629,5.696 5.864,5.696 3.144,0 5.781,-2.465 5.781,-5.696 0,-3.144 -2.637,-5.695 -5.781,-5.695 z m -4.59,-48.535 v 42.246 h 9.097 v -42.246 h -9.097" /><path
         id="path56"
         style="fill:#231f20;fill-opacity:1;fill-rule:nonzero;stroke:none"
         d="m 874.68,134.91 c -3.149,0 -6.289,0.344 -8.922,0.852 l 0.254,7.734 c 2.633,-0.766 5.945,-1.355 9.179,-1.355 4.93,0 8.329,2.121 8.329,5.609 0,8.496 -18.532,3.398 -18.532,18.016 0,7.308 5.953,13.093 17.43,13.093 2.461,0 5.352,-0.343 7.902,-0.769 l -0.257,-7.391 c -2.547,0.762 -5.52,1.192 -8.243,1.192 -5.011,0 -7.48,-2.043 -7.48,-5.274 0,-8.16 18.703,-3.996 18.703,-18.019 0,-7.903 -7.059,-13.688 -18.363,-13.688" /><path
         id="path58"
         style="fill:#231f20;fill-opacity:1;fill-rule:nonzero;stroke:none"
         d="m 921.602,135.082 c -10.883,0 -18.789,5.352 -18.789,20.402 0,13.426 6.882,23.204 21.421,23.204 3.145,0 6.375,-0.426 9.18,-1.278 l -0.934,-7.902 c -2.546,0.937 -5.437,1.613 -8.5,1.613 -7.734,0 -11.644,-5.695 -11.644,-14.617 0,-7.738 2.805,-13.602 11.219,-13.602 3.226,0 6.715,0.766 9.179,2.039 l 0.766,-7.734 c -2.809,-1.102 -7.227,-2.125 -11.898,-2.125" /><path
         id="path60"
         style="fill:#231f20;fill-opacity:1;fill-rule:nonzero;stroke:none"
         d="m 972.008,135.762 v 27.203 c 0,5.269 -1.445,8.328 -6.293,8.328 -6.375,0 -11.051,-6.719 -11.051,-15.215 v -20.316 h -9.094 v 62.051 h 9.094 v -19.125 c 0,-2.637 -0.172,-6.208 -0.762,-8.5 l 0.164,-0.086 c 2.465,5.269 7.481,8.757 14.368,8.757 9.601,0 12.582,-6.035 12.582,-13.515 v -29.582 h -9.008" /><path
         id="path62"
         style="fill:#231f20;fill-opacity:1;fill-rule:nonzero;stroke:none"
         d="m 1021.05,162.703 h -17.94 c 0.77,5.699 4.34,9.442 9.44,9.442 5.36,0 8.67,-3.657 8.5,-9.442 z m 9.1,-2.121 c 0,10.027 -5.19,18.277 -17.26,18.277 -12.33,0 -19.296,-9.523 -19.296,-22.273 0,-14.871 7.226,-21.676 20.396,-21.676 5.19,0 10.37,0.934 14.62,2.723 l -0.84,7.226 c -3.49,-1.699 -7.99,-2.718 -12.33,-2.718 -8.41,0 -12.75,4.418 -12.49,14.191 h 26.94 c 0.17,1.617 0.26,3.059 0.26,4.25" /><path
         id="path64"
         style="fill:#231f20;fill-opacity:1;fill-rule:nonzero;stroke:none"
         d="m 1100.78,135.762 v 25.758 h -27.12 v -25.758 h -9.27 v 57.379 h 9.27 v -23.715 h 27.12 v 23.715 h 9.18 v -57.379 h -9.18" /><path
         id="path66"
         style="fill:#231f20;fill-opacity:1;fill-rule:nonzero;stroke:none"
         d="m 1153.48,157.094 c 0,-9.77 -4.93,-14.364 -10.8,-14.364 -7.05,0 -10.79,5.02 -10.79,14.536 0,9.691 5.35,13.941 10.88,13.941 7.22,0 10.71,-5.098 10.71,-14.113 z m 9.35,0.597 c 0,14.879 -7.99,21.168 -19.3,21.168 -12.83,0 -21.08,-9.777 -21.08,-22.527 0,-14.879 7.65,-21.422 19.38,-21.422 12.49,0 21,9.778 21,22.781" /><path
         id="path68"
         style="fill:#231f20;fill-opacity:1;fill-rule:nonzero;stroke:none"
         d="m 1190.79,135.082 c -10.88,0 -18.78,5.352 -18.78,20.402 0,13.426 6.88,23.204 21.42,23.204 3.14,0 6.37,-0.426 9.18,-1.278 l -0.94,-7.902 c -2.55,0.937 -5.44,1.613 -8.5,1.613 -7.74,0 -11.64,-5.695 -11.64,-14.617 0,-7.738 2.8,-13.602 11.21,-13.602 3.24,0 6.72,0.766 9.19,2.039 l 0.76,-7.734 c -2.8,-1.102 -7.23,-2.125 -11.9,-2.125" /><path
         id="path70"
         style="fill:#231f20;fill-opacity:1;fill-rule:nonzero;stroke:none"
         d="m 1241.2,135.762 v 27.203 c 0,5.269 -1.45,8.328 -6.29,8.328 -6.38,0 -11.05,-6.719 -11.05,-15.215 v -20.316 h -9.1 v 62.051 h 9.1 v -19.125 c 0,-2.637 -0.17,-6.208 -0.77,-8.5 l 0.17,-0.086 c 2.47,5.269 7.48,8.757 14.37,8.757 9.6,0 12.57,-6.035 12.57,-13.515 v -29.582 h -9" /><path
         id="path72"
         style="fill:#231f20;fill-opacity:1;fill-rule:nonzero;stroke:none"
         d="m 1273.15,134.91 c -3.14,0 -6.29,0.344 -8.92,0.852 l 0.26,7.734 c 2.63,-0.766 5.94,-1.355 9.18,-1.355 4.92,0 8.33,2.121 8.33,5.609 0,8.496 -18.53,3.398 -18.53,18.016 0,7.308 5.94,13.093 17.42,13.093 2.47,0 5.36,-0.343 7.9,-0.769 l -0.25,-7.391 c -2.55,0.762 -5.52,1.192 -8.24,1.192 -5.02,0 -7.48,-2.043 -7.48,-5.274 0,-8.16 18.7,-3.996 18.7,-18.019 0,-7.903 -7.06,-13.688 -18.37,-13.688" /><path
         id="path74"
         style="fill:#231f20;fill-opacity:1;fill-rule:nonzero;stroke:none"
         d="m 1320.07,135.082 c -10.87,0 -18.78,5.352 -18.78,20.402 0,13.426 6.89,23.204 21.42,23.204 3.15,0 6.38,-0.426 9.18,-1.278 l -0.93,-7.902 c -2.56,0.937 -5.44,1.613 -8.5,1.613 -7.74,0 -11.65,-5.695 -11.65,-14.617 0,-7.738 2.8,-13.602 11.22,-13.602 3.23,0 6.72,0.766 9.18,2.039 l 0.77,-7.734 c -2.81,-1.102 -7.23,-2.125 -11.91,-2.125" /><path
         id="path76"
         style="fill:#231f20;fill-opacity:1;fill-rule:nonzero;stroke:none"
         d="m 1370.48,135.762 v 27.203 c 0,5.269 -1.45,8.328 -6.29,8.328 -6.37,0 -11.05,-6.719 -11.05,-15.215 v -20.316 h -9.1 v 62.051 h 9.1 v -19.125 c 0,-2.637 -0.17,-6.208 -0.76,-8.5 l 0.16,-0.086 c 2.47,5.269 7.48,8.757 14.37,8.757 9.61,0 12.58,-6.035 12.58,-13.515 v -29.582 h -9.01" /><path
         id="path78"
         style="fill:#231f20;fill-opacity:1;fill-rule:nonzero;stroke:none"
         d="m 1422.25,135.762 c 0,2.211 0.17,5.863 0.59,8.246 l -0.09,0.086 c -2.46,-5.442 -7.56,-9.184 -14.7,-9.184 -9.6,0 -12.58,6.039 -12.58,13.52 v 29.578 h 9.01 v -27.203 c 0,-5.27 1.44,-8.328 6.29,-8.328 6.37,0 11.05,6.718 11.05,15.132 v 20.399 h 9.09 v -42.246 h -8.66" /><path
         id="path80"
         style="fill:#231f20;fill-opacity:1;fill-rule:nonzero;stroke:none"
         d="m 1446.89,135.762 v 62.051 h 9.1 v -62.051 h -9.1" /><path
         id="path82"
         style="fill:#231f20;fill-opacity:1;fill-rule:nonzero;stroke:none"
         d="m 1496.03,162.703 h -17.94 c 0.76,5.699 4.33,9.442 9.43,9.442 5.36,0 8.67,-3.657 8.51,-9.442 z m 9.09,-2.121 c 0,10.027 -5.19,18.277 -17.26,18.277 -12.32,0 -19.29,-9.523 -19.29,-22.273 0,-14.871 7.23,-21.676 20.4,-21.676 5.19,0 10.37,0.934 14.62,2.723 l -0.85,7.226 c -3.49,-1.699 -7.99,-2.718 -12.33,-2.718 -8.41,0 -12.75,4.418 -12.49,14.191 h 26.94 c 0.18,1.617 0.26,3.059 0.26,4.25" /><path
         id="path84"
         style="fill:#231f20;fill-opacity:1;fill-rule:nonzero;stroke:none"
         d="m 1536.57,135.762 v 7.054 l 22.61,35.957 c 1.36,2.207 2.71,4.168 4.25,6.204 -2.47,-0.082 -5.78,-0.082 -11.65,-0.082 h -14.36 v 8.246 h 36.97 v -7.317 l -23.8,-37.14 c -0.93,-1.618 -1.87,-2.977 -2.97,-4.59 1.52,0.168 6.11,0.168 13.43,0.168 h 13.68 v -8.5 h -38.16" /><path
         id="path86"
         style="fill:#231f20;fill-opacity:1;fill-rule:nonzero;stroke:none"
         d="m 1612.12,185.996 c -2.89,0 -5.18,2.293 -5.18,5.188 0,2.804 2.29,5.101 5.18,5.101 2.81,0 5.1,-2.297 5.1,-5.101 0,-2.895 -2.29,-5.188 -5.1,-5.188 z m -16.74,0 c -2.9,0 -5.1,2.293 -5.1,5.188 0,2.804 2.2,5.101 5.1,5.101 2.89,0 5.18,-2.297 5.18,-5.101 0,-2.895 -2.29,-5.188 -5.18,-5.188 z m 17.85,-50.234 c 0,2.211 0.17,5.863 0.59,8.246 l -0.09,0.086 c -2.46,-5.442 -7.56,-9.184 -14.7,-9.184 -9.6,0 -12.58,6.039 -12.58,13.52 v 29.578 h 9.01 v -27.203 c 0,-5.27 1.44,-8.328 6.29,-8.328 6.38,0 11.05,6.718 11.05,15.132 v 20.399 h 9.09 v -42.246 h -8.66" /><path
         id="path88"
         style="fill:#231f20;fill-opacity:1;fill-rule:nonzero;stroke:none"
         d="m 1659.47,169.934 c -8.42,1.527 -12.5,-4.336 -12.5,-17.004 v -17.168 h -9.09 v 42.246 h 8.67 c 0,-2.383 -0.26,-6.117 -0.85,-9.352 h 0.16 c 1.87,5.696 6.13,10.969 14.03,10.203 l -0.42,-8.925" /><path
         id="path90"
         style="fill:#231f20;fill-opacity:1;fill-rule:nonzero;stroke:none"
         d="m 1681.14,189.992 c 0,3.231 -2.63,5.696 -5.78,5.696 -3.23,0 -5.86,-2.547 -5.86,-5.696 0,-3.144 2.63,-5.695 5.86,-5.695 3.15,0 5.78,2.551 5.78,5.695 z m -1.27,-54.23 v 42.246 h -9.1 v -42.246 h 9.1" /><path
         id="path92"
         style="fill:#231f20;fill-opacity:1;fill-rule:nonzero;stroke:none"
         d="m 1711.23,135.082 c -10.88,0 -18.78,5.352 -18.78,20.402 0,13.426 6.88,23.204 21.41,23.204 3.15,0 6.38,-0.426 9.19,-1.278 l -0.94,-7.902 c -2.55,0.937 -5.44,1.613 -8.5,1.613 -7.73,0 -11.65,-5.695 -11.65,-14.617 0,-7.738 2.81,-13.602 11.22,-13.602 3.24,0 6.72,0.766 9.18,2.039 l 0.77,-7.734 c -2.8,-1.102 -7.23,-2.125 -11.9,-2.125" /><path
         id="path94"
         style="fill:#231f20;fill-opacity:1;fill-rule:nonzero;stroke:none"
         d="m 1761.64,135.762 v 27.203 c 0,5.269 -1.45,8.328 -6.29,8.328 -6.38,0 -11.05,-6.719 -11.05,-15.215 v -20.316 h -9.1 v 62.051 h 9.1 v -19.125 c 0,-2.637 -0.17,-6.208 -0.77,-8.5 l 0.17,-0.086 c 2.47,5.269 7.48,8.757 14.37,8.757 9.6,0 12.57,-6.035 12.57,-13.515 v -29.582 h -9" /><path
         id="path96"
         style="fill:#231f20;fill-opacity:1;fill-rule:nonzero;stroke:none"
         d="m 12.832,20.9141 c -4.16403,0 -8.24216,0.5078 -11.55856,1.3554 l 0.50781,8.7578 c 3.23438,-1.1875 7.73438,-2.125 11.90235,-2.125 6.293,0 11.3906,2.6368 11.3906,8.8399 0,12.0742 -25.0742,6.9687 -25.0742,25.5 0,9.8594 7.73438,16.7422 21.0781,16.7422 3.3985,0 6.8867,-0.4219 10.3711,-1.0156 l -0.5117,-8.2461 c -3.3164,1.0195 -6.9687,1.6171 -10.3672,1.6171 -7.1406,0 -10.79296,-3.3164 -10.79296,-8.0781 0,-11.4726 25.07036,-7.2265 25.07036,-25.1601 0,-10.543 -8.3282,-18.1875 -22.0157,-18.1875" /><path
         id="path98"
         style="fill:#231f20;fill-opacity:1;fill-rule:nonzero;stroke:none"
         d="M 93.1445,21.7617 H 83.1133 l -7.3086,22.1016 c -0.9336,2.8008 -1.6992,5.6914 -2.4649,8.9258 h -0.082 c -0.8515,-3.7422 -1.789,-7.0547 -2.8906,-10.625 L 63.9883,21.7617 H 54.3867 L 41.3828,64.0078 h 9.9453 L 56.9375,44.3711 C 58.043,40.375 59.2344,36.3828 60.082,32.5586 h 0.0821 c 0.8515,4.1641 1.8711,7.9062 2.9765,11.5586 l 6.293,19.8906 h 9.1797 L 84.9844,44.457 c 1.6172,-5.1015 2.4648,-8.2461 3.3164,-11.8984 h 0.0898 c 0.8477,3.9062 1.6992,7.2227 2.9727,11.4766 l 5.8633,19.9726 H 106.66 L 93.1445,21.7617" /><path
         id="path100"
         style="fill:#231f20;fill-opacity:1;fill-rule:nonzero;stroke:none"
         d="m 121.703,70.2969 c -3.226,0 -5.863,2.5508 -5.863,5.6953 0,3.1445 2.637,5.6992 5.863,5.6992 3.145,0 5.781,-2.4687 5.781,-5.6992 0,-3.1445 -2.636,-5.6953 -5.781,-5.6953 z m -4.59,-48.5352 v 42.2461 h 9.098 V 21.7617 h -9.098" /><path
         id="path102"
         style="fill:#231f20;fill-opacity:1;fill-rule:nonzero;stroke:none"
         d="m 149.16,20.9141 c -3.144,0 -6.289,0.3359 -8.926,0.8476 l 0.254,7.7344 c 2.637,-0.7656 5.953,-1.3594 9.18,-1.3594 4.934,0 8.328,2.1289 8.328,5.6094 0,8.5 -18.527,3.4023 -18.527,18.0234 0,7.3086 5.953,13.0899 17.426,13.0899 2.464,0 5.355,-0.3438 7.906,-0.7656 l -0.254,-7.3946 c -2.551,0.7617 -5.527,1.1875 -8.246,1.1875 -5.016,0 -7.485,-2.0351 -7.485,-5.2695 0,-8.1602 18.704,-3.9961 18.704,-18.0234 0,-7.8985 -7.055,-13.6797 -18.36,-13.6797" /><path
         id="path104"
         style="fill:#231f20;fill-opacity:1;fill-rule:nonzero;stroke:none"
         d="m 187.664,20.9141 c -3.148,0 -6.293,0.3359 -8.926,0.8476 l 0.254,7.7344 c 2.641,-0.7656 5.949,-1.3594 9.184,-1.3594 4.929,0 8.328,2.1289 8.328,5.6094 0,8.5 -18.531,3.4023 -18.531,18.0234 0,7.3086 5.953,13.0899 17.429,13.0899 2.465,0 5.352,-0.3438 7.903,-0.7656 l -0.258,-7.3946 c -2.551,0.7617 -5.524,1.1875 -8.242,1.1875 -5.016,0 -7.481,-2.0351 -7.481,-5.2695 0,-8.1602 18.703,-3.9961 18.703,-18.0234 0,-7.8985 -7.058,-13.6797 -18.363,-13.6797" /><path
         id="path106"
         style="fill:#231f20;fill-opacity:1;fill-rule:nonzero;stroke:none"
         d="m 249.711,71.3203 v -16.832 h 19.551 V 46.9258 H 249.711 V 21.7617 h -9.266 v 57.375 h 29.922 v -7.8164 h -20.656" /><path
         id="path108"
         style="fill:#231f20;fill-opacity:1;fill-rule:nonzero;stroke:none"
         d="m 304.945,48.707 h -17.933 c 0.761,5.6993 4.332,9.4375 9.433,9.4375 5.356,0 8.672,-3.6562 8.5,-9.4375 z m 9.094,-2.125 c 0,10.0313 -5.187,18.2774 -17.254,18.2774 -12.328,0 -19.297,-9.5235 -19.297,-22.2696 0,-14.8789 7.231,-21.6757 20.403,-21.6757 5.183,0 10.371,0.9336 14.621,2.7187 l -0.852,7.2227 c -3.484,-1.6992 -7.988,-2.7188 -12.324,-2.7188 -8.418,0 -12.75,4.4219 -12.496,14.1992 h 26.945 c 0.168,1.6094 0.254,3.0547 0.254,4.2461" /><path
         id="path110"
         style="fill:#231f20;fill-opacity:1;fill-rule:nonzero;stroke:none"
         d="m 352.117,43.6094 c 0,-7.2266 -3.738,-15.2149 -10.453,-15.2149 -5.781,0 -8.418,4.7618 -8.418,13.2578 0,11.3907 4.934,15.8086 12.16,15.8086 2.207,0 4.418,-0.2539 6.711,-0.7617 z m 9.012,-21.8477 v 62.0508 h -9.012 V 64.3477 c -2.293,0.1679 -4.336,0.3398 -6.375,0.3398 -13.679,0 -22.097,-9.3516 -22.097,-23.8867 0,-12.2422 5.183,-19.8867 15.554,-19.8867 6.543,0 11.477,3.5703 13.77,8.7539 h 0.172 c -0.426,-2.3828 -0.598,-5.6992 -0.598,-7.9063 h 8.586" /><path
         id="path112"
         style="fill:#231f20;fill-opacity:1;fill-rule:nonzero;stroke:none"
         d="m 401.16,48.707 h -17.933 c 0.765,5.6993 4.336,9.4375 9.433,9.4375 5.36,0 8.672,-3.6562 8.5,-9.4375 z m 9.098,-2.125 c 0,10.0313 -5.184,18.2774 -17.254,18.2774 -12.324,0 -19.297,-9.5235 -19.297,-22.2696 0,-14.8789 7.227,-21.6757 20.398,-21.6757 5.188,0 10.372,0.9336 14.625,2.7187 l -0.855,7.2227 c -3.48,-1.6992 -7.988,-2.7188 -12.324,-2.7188 -8.41,0 -12.746,4.4219 -12.492,14.1992 h 26.945 c 0.168,1.6094 0.254,3.0547 0.254,4.2461" /><path
         id="path114"
         style="fill:#231f20;fill-opacity:1;fill-rule:nonzero;stroke:none"
         d="m 444.855,55.9336 c -8.417,1.5273 -12.496,-4.3359 -12.496,-17.0039 v -17.168 h -9.097 v 42.2461 h 8.672 c 0,-2.3828 -0.258,-6.1211 -0.848,-9.3476 h 0.164 c 1.871,5.6914 6.121,10.9609 14.027,10.1992 l -0.422,-8.9258" /><path
         id="path116"
         style="fill:#231f20;fill-opacity:1;fill-rule:nonzero;stroke:none"
         d="m 476.469,40.0391 c 0,-6.0352 -4.164,-11.9883 -10.371,-11.9883 -3.571,0 -5.782,2.043 -5.782,5.1875 0,3.6523 2.891,7.6523 16.153,7.6523 z m 9.351,-18.2774 c -0.172,3.5703 -0.257,7.9063 -0.257,11.5586 v 17.2539 c 0,8.6719 -3.571,14.2852 -16.493,14.2852 -5.437,0 -10.707,-1.1914 -14.871,-2.8086 l 0.852,-7.7344 c 3.566,2.2109 8.664,3.4024 12.578,3.4024 6.629,0 8.84,-2.7227 8.84,-7.9922 v -2.7188 c -15.215,0 -24.906,-5.6094 -24.906,-15.2969 0,-6.7187 4.589,-10.7968 11.816,-10.7968 6.715,0 11.98,3.7382 14.023,8.7539 l 0.086,-0.0899 c -0.34,-2.2929 -0.422,-5.0937 -0.422,-7.8164 h 8.754" /><path
         id="path118"
         style="fill:#231f20;fill-opacity:1;fill-rule:nonzero;stroke:none"
         d="m 501.715,21.7617 v 62.0508 h 9.09 V 21.7617 h -9.09" /><path
         id="path120"
         style="fill:#231f20;fill-opacity:1;fill-rule:nonzero;stroke:none"
         d="m 548.035,21.7617 v 57.375 h 9.266 v -57.375 h -9.266" /><path
         id="path122"
         style="fill:#231f20;fill-opacity:1;fill-rule:nonzero;stroke:none"
         d="m 599.801,21.7617 v 27.1992 c 0,5.2735 -1.446,8.3282 -6.289,8.3282 -6.379,0 -11.051,-6.7149 -11.051,-15.125 V 21.7617 h -9.098 v 42.2461 h 8.672 c 0,-2.2109 -0.172,-5.8633 -0.594,-8.2461 l 0.082,-0.082 c 2.465,5.4375 7.563,9.1797 14.707,9.1797 9.606,0 12.579,-6.0352 12.579,-13.5156 V 21.7617 h -9.008" /><path
         id="path124"
         style="fill:#231f20;fill-opacity:1;fill-rule:nonzero;stroke:none"
         d="m 631.758,20.9141 c -3.145,0 -6.289,0.3359 -8.926,0.8476 l 0.258,7.7344 c 2.633,-0.7656 5.949,-1.3594 9.18,-1.3594 4.925,0 8.332,2.1289 8.332,5.6094 0,8.5 -18.532,3.4023 -18.532,18.0234 0,7.3086 5.95,13.0899 17.422,13.0899 2.465,0 5.356,-0.3438 7.906,-0.7656 l -0.253,-7.3946 c -2.551,0.7617 -5.524,1.1875 -8.243,1.1875 -5.019,0 -7.48,-2.0351 -7.48,-5.2695 0,-8.1602 18.695,-3.9961 18.695,-18.0234 0,-7.8985 -7.051,-13.6797 -18.359,-13.6797" /><path
         id="path126"
         style="fill:#231f20;fill-opacity:1;fill-rule:nonzero;stroke:none"
         d="m 676.809,20.9961 c -9.012,0 -11.731,3.4883 -11.731,12.918 v 23.039 h -8.074 v 7.0547 h 8.074 v 13.4297 l 9.008,2.4648 V 64.0078 h 11.141 V 56.9531 H 674.176 V 36.7227 c 0,-6.293 1.273,-7.9922 5.519,-7.9922 1.871,0 3.914,0.2578 5.532,0.6836 v -7.4805 c -2.469,-0.5117 -5.614,-0.9375 -8.418,-0.9375" /><path
         id="path128"
         style="fill:#231f20;fill-opacity:1;fill-rule:nonzero;stroke:none"
         d="m 708.086,75.9922 c 0,3.2305 -2.633,5.6992 -5.777,5.6992 -3.231,0 -5.868,-2.5547 -5.868,-5.6992 0,-3.1445 2.637,-5.6953 5.868,-5.6953 3.144,0 5.777,2.5508 5.777,5.6953 z m -1.273,-54.2305 v 42.2461 h -9.098 V 21.7617 h 9.098" /><path
         id="path130"
         style="fill:#231f20;fill-opacity:1;fill-rule:nonzero;stroke:none"
         d="m 736.305,20.9961 c -9.008,0 -11.731,3.4883 -11.731,12.918 v 23.039 H 716.5 v 7.0547 h 8.074 v 13.4297 l 9.012,2.4648 V 64.0078 h 11.137 V 56.9531 H 733.672 V 36.7227 c 0,-6.293 1.273,-7.9922 5.523,-7.9922 1.871,0 3.91,0.2578 5.528,0.6836 v -7.4805 c -2.465,-0.5117 -5.614,-0.9375 -8.418,-0.9375" /><path
         id="path132"
         style="fill:#231f20;fill-opacity:1;fill-rule:nonzero;stroke:none"
         d="m 783.988,21.7617 c 0,2.2071 0.172,5.8672 0.598,8.2422 l -0.082,0.0899 c -2.469,-5.4415 -7.57,-9.1797 -14.707,-9.1797 -9.606,0 -12.578,6.0351 -12.578,13.5156 v 29.5781 h 9.008 V 36.8086 c 0,-5.2695 1.445,-8.332 6.289,-8.332 6.375,0 11.05,6.7148 11.05,15.1328 v 20.3984 h 9.094 V 21.7617 h -8.672" /><path
         id="path134"
         style="fill:#231f20;fill-opacity:1;fill-rule:nonzero;stroke:none"
         d="m 822.152,20.9961 c -9.007,0 -11.726,3.4883 -11.726,12.918 v 23.039 h -8.078 v 7.0547 h 8.078 v 13.4297 l 9.008,2.4648 V 64.0078 H 830.57 V 56.9531 H 819.523 V 36.7227 c 0,-6.293 1.274,-7.9922 5.52,-7.9922 1.871,0 3.91,0.2578 5.527,0.6836 v -7.4805 c -2.465,-0.5117 -5.609,-0.9375 -8.418,-0.9375" /><path
         id="path136"
         style="fill:#231f20;fill-opacity:1;fill-rule:nonzero;stroke:none"
         d="m 867.117,48.707 h -17.933 c 0.761,5.6993 4.336,9.4375 9.433,9.4375 5.36,0 8.672,-3.6562 8.5,-9.4375 z m 9.098,-2.125 c 0,10.0313 -5.184,18.2774 -17.254,18.2774 -12.324,0 -19.297,-9.5235 -19.297,-22.2696 0,-14.8789 7.227,-21.6757 20.399,-21.6757 5.187,0 10.371,0.9336 14.621,2.7187 l -0.852,7.2227 c -3.484,-1.6992 -7.988,-2.7188 -12.324,-2.7188 -8.41,0 -12.746,4.4219 -12.492,14.1992 h 26.941 c 0.172,1.6094 0.258,3.0547 0.258,4.2461" /><path
         id="path138"
         style="fill:#231f20;fill-opacity:1;fill-rule:nonzero;stroke:none"
         d="m 937.922,43.0977 c 0,-9.7774 -4.93,-14.3672 -10.797,-14.3672 -7.051,0 -10.793,5.0156 -10.793,14.5351 0,9.6953 5.352,13.9414 10.879,13.9414 7.227,0 10.711,-5.0976 10.711,-14.1093 z m 9.348,0.5937 c 0,14.8789 -7.989,21.168 -19.29,21.168 -12.839,0 -21.085,-9.7774 -21.085,-22.5235 0,-14.8789 7.652,-21.4218 19.378,-21.4218 12.497,0 20.997,9.7734 20.997,22.7773" /><path
         id="path140"
         style="fill:#231f20;fill-opacity:1;fill-rule:nonzero;stroke:none"
         d="m 984.922,76.1602 c -1.871,0.5976 -3.91,0.8515 -5.781,0.8515 -5.442,0 -7.907,-2.9726 -7.907,-9.6054 v -3.3985 h 10.969 V 56.9531 H 971.234 V 21.7617 h -9.007 v 35.1914 h -8.075 v 7.0547 h 8.075 v 3.2305 c 0,11.5625 5.523,17.1719 16.488,17.1719 2.379,0 4.676,-0.2579 6.887,-0.7657 l -0.68,-7.4843" /><path
         id="path142"
         style="fill:#231f20;fill-opacity:1;fill-rule:nonzero;stroke:none"
         d="M 1030.72,71.3203 V 21.7617 h -9.27 v 49.5586 h -15.72 v 7.8164 h 40.8 v -7.8164 h -15.81" /><path
         id="path144"
         style="fill:#231f20;fill-opacity:1;fill-rule:nonzero;stroke:none"
         d="m 1074.06,48.707 h -17.94 c 0.77,5.6993 4.33,9.4375 9.44,9.4375 5.35,0 8.66,-3.6562 8.5,-9.4375 z m 9.09,-2.125 c 0,10.0313 -5.19,18.2774 -17.26,18.2774 -12.32,0 -19.29,-9.5235 -19.29,-22.2696 0,-14.8789 7.22,-21.6757 20.4,-21.6757 5.19,0 10.38,0.9336 14.62,2.7187 l -0.85,7.2227 c -3.48,-1.6992 -7.99,-2.7188 -12.32,-2.7188 -8.42,0 -12.76,4.4219 -12.5,14.1992 h 26.94 c 0.18,1.6094 0.26,3.0547 0.26,4.2461" /><path
         id="path146"
         style="fill:#231f20;fill-opacity:1;fill-rule:nonzero;stroke:none"
         d="m 1111.54,21.0859 c -10.88,0 -18.79,5.3516 -18.79,20.3985 0,13.4258 6.89,23.2031 21.43,23.2031 3.14,0 6.37,-0.4258 9.18,-1.2734 l -0.94,-7.9063 c -2.55,0.9336 -5.44,1.6172 -8.5,1.6172 -7.73,0 -11.64,-5.6992 -11.64,-14.625 0,-7.7344 2.8,-13.5977 11.22,-13.5977 3.22,0 6.71,0.7657 9.18,2.0391 l 0.76,-7.7344 c -2.8,-1.1054 -7.23,-2.1211 -11.9,-2.1211" /><path
         id="path148"
         style="fill:#231f20;fill-opacity:1;fill-rule:nonzero;stroke:none"
         d="m 1161.94,21.7617 v 27.1992 c 0,5.2735 -1.44,8.3282 -6.29,8.3282 -6.37,0 -11.04,-6.7149 -11.04,-15.2149 V 21.7617 h -9.1 v 62.0508 h 9.1 v -19.125 c 0,-2.6367 -0.18,-6.207 -0.77,-8.5 l 0.17,-0.082 c 2.47,5.2656 7.48,8.7539 14.37,8.7539 9.6,0 12.58,-6.0352 12.58,-13.5156 V 21.7617 h -9.02" /><path
         id="path150"
         style="fill:#231f20;fill-opacity:1;fill-rule:nonzero;stroke:none"
         d="m 1213.37,21.7617 v 27.1992 c 0,5.2735 -1.44,8.3282 -6.29,8.3282 -6.38,0 -11.05,-6.7149 -11.05,-15.125 V 21.7617 h -9.1 v 42.2461 h 8.68 c 0,-2.2109 -0.18,-5.8633 -0.6,-8.2461 l 0.08,-0.082 c 2.47,5.4375 7.57,9.1797 14.71,9.1797 9.6,0 12.58,-6.0352 12.58,-13.5156 V 21.7617 h -9.01" /><path
         id="path152"
         style="fill:#231f20;fill-opacity:1;fill-rule:nonzero;stroke:none"
         d="m 1265.82,43.0977 c 0,-9.7774 -4.94,-14.3672 -10.8,-14.3672 -7.06,0 -10.8,5.0156 -10.8,14.5351 0,9.6953 5.36,13.9414 10.88,13.9414 7.23,0 10.72,-5.0976 10.72,-14.1093 z m 9.35,0.5937 c 0,14.8789 -8,21.168 -19.3,21.168 -12.84,0 -21.08,-9.7774 -21.08,-22.5235 0,-14.8789 7.65,-21.4218 19.38,-21.4218 12.49,0 21,9.7734 21,22.7773" /><path
         id="path154"
         style="fill:#231f20;fill-opacity:1;fill-rule:nonzero;stroke:none"
         d="m 1287.74,21.7617 v 62.0508 h 9.1 V 21.7617 h -9.1" /><path
         id="path156"
         style="fill:#231f20;fill-opacity:1;fill-rule:nonzero;stroke:none"
         d="m 1340.27,43.0977 c 0,-9.7774 -4.93,-14.3672 -10.79,-14.3672 -7.06,0 -10.8,5.0156 -10.8,14.5351 0,9.6953 5.36,13.9414 10.89,13.9414 7.22,0 10.7,-5.0976 10.7,-14.1093 z m 9.36,0.5937 c 0,14.8789 -8,21.168 -19.3,21.168 -12.83,0 -21.08,-9.7774 -21.08,-22.5235 0,-14.8789 7.65,-21.4218 19.38,-21.4218 12.5,0 21,9.7734 21,22.7773" /><path
         id="path158"
         style="fill:#231f20;fill-opacity:1;fill-rule:nonzero;stroke:none"
         d="m 1387.79,49.2188 c 0,-5.5274 -3.74,-8.6719 -9.43,-8.6719 -6.13,0 -9.53,3.2344 -9.53,8.7539 0,5.1875 3.57,8.8437 9.61,8.8437 5.86,0 9.35,-3.3164 9.35,-8.9257 z m 11.73,-32.9844 c 0,7.9062 -5.19,12.2422 -14.37,12.2422 h -7.22 c -5.1,0 -6.97,0.8476 -6.97,2.9726 0,1.1914 0.76,2.4649 2.46,3.1446 1.28,-0.254 3.23,-0.4219 4.85,-0.4219 11.9,0 18.27,6.457 18.27,15.6445 0,3.0547 -1.1,5.6055 -2.89,7.0508 h 6.46 v 7.1406 h -14.27 c -2.3,0.5078 -4.43,0.8516 -6.98,0.8516 -12.07,0 -18.87,-7.4805 -18.87,-16.4063 0,-5.2695 2.13,-9.6054 6.3,-11.8984 -2.99,-1.2774 -4.85,-4.168 -4.85,-7.2305 0,-2.8008 1.61,-5.0117 4.16,-6.289 -3.65,-1.8672 -6.8,-5.8633 -6.8,-10.625 C 1358.8,4.25391 1365.69,0 1376.74,0 c 13.6,0 22.78,7.22656 22.78,16.2344 z m -9.01,-1.1836 c 0,-4.5899 -4.42,-7.99611 -12.33,-7.99611 -6.12,0 -10.37,2.55078 -10.37,7.05861 0,2.8906 1.79,5.4375 4.67,7.0547 0.69,-0.0821 1.54,-0.0821 2.3,-0.0821 h 7.91 c 5.35,0 7.82,-2.3867 7.82,-6.0351" /><path
         id="path160"
         style="fill:#231f20;fill-opacity:1;fill-rule:nonzero;stroke:none"
         d="m 1430.12,17.6797 c -4.93,-13.17189 -9.1,-17.253919 -18.62,-17.253919 -1.7,0 -4,0.257813 -5.7,0.593749 l 0.68,7.9961 c 1.88,-0.6875 3.58,-0.94141 5.53,-0.94141 4.25,0 6.63,1.96098 9.26,9.18358 l 1.71,4.5039 -15.81,42.2461 h 10.2 l 6.88,-19.2969 c 1.36,-3.7382 2.38,-7.4804 3.32,-11.0507 h 0.08 c 0.85,3.4023 2.64,8.8398 4.17,13.1757 l 6.03,17.1719 h 9.78 l -17.51,-46.3281" /><path
         id="path162"
         style="fill:#231f20;fill-opacity:1;fill-rule:nonzero;stroke:none"
         d="m 1475.93,21.7617 v 7.0586 l 22.61,35.9492 c 1.36,2.2149 2.72,4.168 4.25,6.2071 -2.46,-0.0821 -5.78,-0.0821 -11.65,-0.0821 h -14.36 v 8.2422 h 36.97 v -7.3125 l -23.79,-37.1406 c -0.94,-1.6172 -1.87,-2.9727 -2.98,-4.5898 1.53,0.1718 6.12,0.1718 13.43,0.1718 h 13.69 v -8.5039 h -38.17" /><path
         id="path164"
         style="fill:#231f20;fill-opacity:1;fill-rule:nonzero;stroke:none"
         d="m 1552.59,21.7617 c 0,2.2071 0.17,5.8672 0.59,8.2422 l -0.08,0.0899 c -2.46,-5.4415 -7.57,-9.1797 -14.71,-9.1797 -9.6,0 -12.57,6.0351 -12.57,13.5156 v 29.5781 h 9 V 36.8086 c 0,-5.2695 1.45,-8.332 6.29,-8.332 6.38,0 11.05,6.7148 11.05,15.1328 v 20.3984 h 9.1 V 21.7617 h -8.67" /><path
         id="path166"
         style="fill:#231f20;fill-opacity:1;fill-rule:nonzero;stroke:none"
         d="m 1598.83,55.9336 c -8.42,1.5273 -12.5,-4.3359 -12.5,-17.0039 v -17.168 h -9.09 v 42.2461 h 8.67 c 0,-2.3828 -0.26,-6.1211 -0.85,-9.3476 h 0.17 c 1.87,5.6914 6.12,10.9609 14.02,10.1992 l -0.42,-8.9258" /><path
         id="path168"
         style="fill:#231f20;fill-opacity:1;fill-rule:nonzero;stroke:none"
         d="m 1614.72,70.2969 c -3.23,0 -5.86,2.5508 -5.86,5.6953 0,3.1445 2.63,5.6992 5.86,5.6992 3.15,0 5.78,-2.4687 5.78,-5.6992 0,-3.1445 -2.63,-5.6953 -5.78,-5.6953 z m -4.59,-48.5352 v 42.2461 h 9.1 V 21.7617 h -9.1" /><path
         id="path170"
         style="fill:#231f20;fill-opacity:1;fill-rule:nonzero;stroke:none"
         d="m 1650.59,21.0859 c -10.88,0 -18.78,5.3516 -18.78,20.3985 0,13.4258 6.88,23.2031 21.42,23.2031 3.14,0 6.38,-0.4258 9.18,-1.2734 l -0.93,-7.9063 c -2.56,0.9336 -5.44,1.6172 -8.51,1.6172 -7.73,0 -11.64,-5.6992 -11.64,-14.625 0,-7.7344 2.8,-13.5977 11.22,-13.5977 3.23,0 6.71,0.7657 9.18,2.0391 l 0.77,-7.7344 c -2.81,-1.1054 -7.23,-2.1211 -11.91,-2.1211" /><path
         id="path172"
         style="fill:#231f20;fill-opacity:1;fill-rule:nonzero;stroke:none"
         d="m 1701,21.7617 v 27.1992 c 0,5.2735 -1.45,8.3282 -6.29,8.3282 -6.37,0 -11.05,-6.7149 -11.05,-15.2149 V 21.7617 h -9.1 v 62.0508 h 9.1 v -19.125 c 0,-2.6367 -0.18,-6.207 -0.77,-8.5 l 0.17,-0.082 c 2.47,5.2656 7.48,8.7539 14.37,8.7539 9.6,0 12.58,-6.0352 12.58,-13.5156 V 21.7617 H 1701" /></g></g></svg>